<?xml version="1.0" encoding="UTF-8"?>
<!DOCTYPE svg PUBLIC "-//W3C//DTD SVG 1.1//EN" "http://www.w3.org/Graphics/SVG/1.1/DTD/svg11.dtd">
<svg xmlns="http://www.w3.org/2000/svg" version="1.1" width="512px" height="512px" style="shape-rendering:geometricPrecision; text-rendering:geometricPrecision; image-rendering:optimizeQuality; fill-rule:evenodd; clip-rule:evenodd" xmlns:xlink="http://www.w3.org/1999/xlink">
<g><path style="opacity:0.998" fill="#246fff" d="M 48.5,370.5 C 48.573,368.973 47.9063,367.973 46.5,367.5C 32.0971,351.344 23.5971,332.344 21,310.5C 20.3333,245.5 20.3333,180.5 21,115.5C 23.4214,94.6779 31.2547,76.3445 44.5,60.5C 45.6252,59.9371 46.9586,58.7705 48.5,57C 48.2716,56.6012 47.9382,56.4346 47.5,56.5C 50.5,52.8333 53.8333,49.5 57.5,46.5C 59.9366,46.114 61.9366,44.9473 63.5,43C 63.2716,42.6012 62.9382,42.4346 62.5,42.5C 66.1189,39.3504 70.1189,36.6837 74.5,34.5C 74.4346,34.9382 74.6012,35.2716 75,35.5C 76.417,34.9221 77.2504,33.9221 77.5,32.5C 89.4677,26.5059 102.134,22.6726 115.5,21C 208.833,20.3333 302.167,20.3333 395.5,21C 429.071,25.3602 455.238,41.5269 474,69.5C 481.359,81.5753 486.359,94.5753 489,108.5C 490.643,175.806 490.976,243.14 490,310.5C 483.12,354.376 458.953,384.21 417.5,400C 409.008,402.565 400.341,404.232 391.5,405C 348.167,405.333 304.833,405.667 261.5,406C 220.328,433.085 179.328,460.419 138.5,488C 124.331,493.835 113.831,490.002 107,476.5C 105.706,452.216 105.039,427.883 105,403.5C 82.6555,398.254 63.8222,387.254 48.5,370.5 Z M 122.5,149.5 C 211.167,149.333 299.834,149.5 388.5,150C 398.273,153.107 403.606,159.774 404.5,170C 402.818,182.349 395.818,189.349 383.5,191C 298.167,191.667 212.833,191.667 127.5,191C 115.182,189.349 108.182,182.349 106.5,170C 107.591,159.754 112.924,152.92 122.5,149.5 Z M 164.5,275.5 C 163.292,274.766 161.959,274.433 160.5,274.5C 149.084,266.405 146.584,256.071 153,243.5C 156.639,239.266 161.139,236.432 166.5,235C 225.833,234.333 285.167,234.333 344.5,235C 360.692,240.898 365.192,251.731 358,267.5C 354.361,271.734 349.861,274.568 344.5,276C 284.459,276.826 224.459,276.659 164.5,275.5 Z"/></g>
<g><path style="opacity:0.776" fill="#54e0ff" d="M 77.5,32.5 C 77.2504,33.9221 76.417,34.9221 75,35.5C 74.6012,35.2716 74.4346,34.9382 74.5,34.5C 75.2905,33.5987 76.2905,32.9321 77.5,32.5 Z"/></g>
<g><path style="opacity:0.659" fill="#a4dbff" d="M 62.5,42.5 C 62.9382,42.4346 63.2716,42.6012 63.5,43C 61.9366,44.9473 59.9366,46.114 57.5,46.5C 58.9448,44.9373 60.6115,43.604 62.5,42.5 Z"/></g>
<g><path style="opacity:0.678" fill="#4fe8fe" d="M 47.5,56.5 C 47.9382,56.4346 48.2716,56.6012 48.5,57C 46.9586,58.7705 45.6252,59.9371 44.5,60.5C 44.7376,58.5956 45.7376,57.2623 47.5,56.5 Z"/></g>
<g><path style="opacity:0.914" fill="#b7e8fe" d="M 160.5,274.5 C 161.959,274.433 163.292,274.766 164.5,275.5C 163.038,276.471 161.705,276.138 160.5,274.5 Z"/></g>
<g><path style="opacity:0.008" fill="#71effe" d="M 46.5,367.5 C 47.9063,367.973 48.573,368.973 48.5,370.5C 47.0937,370.027 46.427,369.027 46.5,367.5 Z"/></g>
</svg>
